# xmcd
#
# Track frame offsets:
#	150
#	16271
#	36847
#	51957
#	69377
#	90925
#	106536
#	126755
#
# Disc length: 1902 seconds
#
# Revision: 1
# Processed by: cddbd v1.5.2PL0 Copyright (c) Steve Scherf et al.
# Submitted via: audiograbber 1.83.01
#
DISCID=57076c08
DTITLE=compilation - CB 60474
DYEAR=2012
DGENRE=karaoke
TTITLE0=Big and Rich ftg. Gretchen Wilson - Fake ID
TTITLE1=Taylor Swift - Sparks Fly
TTITLE2=Sawyer Brown - Smokin' Hot Wife
TTITLE3=Ronnie Dunn - Cost Of Livin'
TTITLE4=Reba McEntire - Somebody's Chelsea
TTITLE5=LoCash Cowboys - You Got Me
TTITLE6=Christian Kane - Let Me Go 
TTITLE7=Pistol Annies - Hell On Heels
EXTD=
EXTT0=
EXTT1=
EXTT2=
EXTT3=
EXTT4=
EXTT5=
EXTT6=
EXTT7=
PLAYORDER=
